# xmcd
#
# Track frame offsets: 
#        150
#        16783
#        38326
#        59819
#        79944
#        99570
#        117202
#        134846
#        156085
#        173508
#        196654
#        215966
#        235995
#        256298
#        276281
#        297489
#
# Disc length: 4216 seconds
#
# Revision: 0
# Processed by: cddbd v1.5.2PL0 Copyright (c) Steve Scherf et al.
# Submitted via: ExactAudioCopy v1.0b3
#
DISCID=e9107610
DTITLE=小林旭 - 小林旭大全集~渡り鳥AKIRA 50HISTORY~ Disc 5 CRCN-50120-24
DYEAR=1900
DGENRE=Blues
TTITLE0=水たまり
TTITLE1=熱き心に 
TTITLE2=昭和舟歌 
TTITLE3=五月雨ワルツ
TTITLE4=雪散歌 
TTITLE5=あれから 
TTITLE6=シベリア鉄道
TTITLE7=腕に虹だけ
TTITLE8=アキラのジーンときちゃうぜ
TTITLE9=惚れた女が死んだ夜は 
TTITLE10=どんでん
TTITLE11=昭和恋唄 
TTITLE12=酒挽歌
TTITLE13=からす 
TTITLE14=旅の酒~望郷編~ 
TTITLE15=旅の酒~放浪編~
EXTD=
EXTT0=
EXTT1=
EXTT2=
EXTT3=
EXTT4=
EXTT5=
EXTT6=
EXTT7=
EXTT8=
EXTT9=
EXTT10=
EXTT11=
EXTT12=
EXTT13=
EXTT14=
EXTT15=
PLAYORDER=
